<mxfile host="app.diagrams.net" modified="2024-02-08T00:27:25.725Z" agent="Mozilla/5.0 (Windows NT 10.0; Win64; x64) AppleWebKit/537.36 (KHTML, like Gecko) Chrome/120.0.0.0 Safari/537.36" etag="-lVsHd1_1s8SV-7AiwAg" version="23.0.2" type="device">
  <diagram name="Page-1" id="9JvnPy2sec5DpOHvtmzM">
    <mxGraphModel dx="1434" dy="772" grid="1" gridSize="10" guides="1" tooltips="1" connect="1" arrows="1" fold="1" page="1" pageScale="1" pageWidth="850" pageHeight="1100" math="0" shadow="0">
      <root>
        <mxCell id="0" />
        <mxCell id="1" parent="0" />
        <mxCell id="eIvDMB0J41AtXun7lqJj-4" value="" style="rounded=0;whiteSpace=wrap;html=1;" vertex="1" parent="1">
          <mxGeometry x="35" y="110" width="435" height="450" as="geometry" />
        </mxCell>
        <mxCell id="eIvDMB0J41AtXun7lqJj-7" value="" style="rounded=0;whiteSpace=wrap;html=1;" vertex="1" parent="1">
          <mxGeometry x="300" y="180" width="360" height="320" as="geometry" />
        </mxCell>
        <mxCell id="eIvDMB0J41AtXun7lqJj-9" style="edgeStyle=orthogonalEdgeStyle;rounded=0;orthogonalLoop=1;jettySize=auto;html=1;exitX=1;exitY=0.5;exitDx=0;exitDy=0;" edge="1" parent="1">
          <mxGeometry relative="1" as="geometry">
            <mxPoint x="330" y="340" as="targetPoint" />
            <mxPoint x="210" y="210" as="sourcePoint" />
            <Array as="points">
              <mxPoint x="270" y="210" />
              <mxPoint x="270" y="340" />
            </Array>
          </mxGeometry>
        </mxCell>
        <mxCell id="eIvDMB0J41AtXun7lqJj-1" value="Scraping&lt;br&gt;Worker" style="whiteSpace=wrap;html=1;aspect=fixed;" vertex="1" parent="1">
          <mxGeometry x="130" y="180" width="80" height="80" as="geometry" />
        </mxCell>
        <mxCell id="eIvDMB0J41AtXun7lqJj-8" style="edgeStyle=orthogonalEdgeStyle;rounded=0;orthogonalLoop=1;jettySize=auto;html=1;exitX=1;exitY=0.5;exitDx=0;exitDy=0;" edge="1" parent="1" source="eIvDMB0J41AtXun7lqJj-2" target="eIvDMB0J41AtXun7lqJj-5">
          <mxGeometry relative="1" as="geometry">
            <Array as="points">
              <mxPoint x="210" y="340" />
            </Array>
          </mxGeometry>
        </mxCell>
        <mxCell id="eIvDMB0J41AtXun7lqJj-2" value="Scraping&lt;br&gt;Worker" style="whiteSpace=wrap;html=1;aspect=fixed;" vertex="1" parent="1">
          <mxGeometry x="130" y="290" width="80" height="80" as="geometry" />
        </mxCell>
        <mxCell id="eIvDMB0J41AtXun7lqJj-3" value="Scraping&lt;br&gt;Worker" style="whiteSpace=wrap;html=1;aspect=fixed;" vertex="1" parent="1">
          <mxGeometry x="130" y="400" width="80" height="80" as="geometry" />
        </mxCell>
        <mxCell id="eIvDMB0J41AtXun7lqJj-33" style="edgeStyle=orthogonalEdgeStyle;rounded=0;orthogonalLoop=1;jettySize=auto;html=1;exitX=1;exitY=0.5;exitDx=0;exitDy=0;exitPerimeter=0;" edge="1" parent="1" source="eIvDMB0J41AtXun7lqJj-5">
          <mxGeometry relative="1" as="geometry">
            <mxPoint x="530" y="340" as="targetPoint" />
          </mxGeometry>
        </mxCell>
        <mxCell id="eIvDMB0J41AtXun7lqJj-5" value="Redis" style="shape=cylinder3;whiteSpace=wrap;html=1;boundedLbl=1;backgroundOutline=1;size=15;" vertex="1" parent="1">
          <mxGeometry x="345" y="290" width="100" height="100" as="geometry" />
        </mxCell>
        <mxCell id="eIvDMB0J41AtXun7lqJj-10" style="edgeStyle=orthogonalEdgeStyle;rounded=0;orthogonalLoop=1;jettySize=auto;html=1;exitX=1;exitY=0.5;exitDx=0;exitDy=0;entryX=0;entryY=0.5;entryDx=0;entryDy=0;entryPerimeter=0;" edge="1" parent="1">
          <mxGeometry relative="1" as="geometry">
            <mxPoint x="210" y="440" as="sourcePoint" />
            <mxPoint x="345" y="340" as="targetPoint" />
            <Array as="points">
              <mxPoint x="270" y="460" />
              <mxPoint x="270" y="340" />
            </Array>
          </mxGeometry>
        </mxCell>
        <mxCell id="eIvDMB0J41AtXun7lqJj-14" value="" style="endArrow=none;html=1;rounded=0;entryX=0.5;entryY=1;entryDx=0;entryDy=0;exitX=0.5;exitY=0;exitDx=0;exitDy=0;" edge="1" parent="1">
          <mxGeometry width="50" height="50" relative="1" as="geometry">
            <mxPoint x="470" y="180" as="sourcePoint" />
            <mxPoint x="470" y="500" as="targetPoint" />
          </mxGeometry>
        </mxCell>
        <mxCell id="eIvDMB0J41AtXun7lqJj-25" value="Scraping Network" style="text;html=1;strokeColor=none;fillColor=none;align=center;verticalAlign=middle;whiteSpace=wrap;rounded=0;" vertex="1" parent="1">
          <mxGeometry x="50" y="120" width="60" height="30" as="geometry" />
        </mxCell>
        <mxCell id="eIvDMB0J41AtXun7lqJj-26" value="Backend&lt;br&gt;Network&lt;br&gt;" style="text;html=1;strokeColor=none;fillColor=none;align=center;verticalAlign=middle;whiteSpace=wrap;rounded=0;" vertex="1" parent="1">
          <mxGeometry x="590" y="190" width="60" height="30" as="geometry" />
        </mxCell>
        <mxCell id="eIvDMB0J41AtXun7lqJj-27" value="Backend&lt;br&gt;Server" style="whiteSpace=wrap;html=1;aspect=fixed;" vertex="1" parent="1">
          <mxGeometry x="530" y="300" width="80" height="80" as="geometry" />
        </mxCell>
        <mxCell id="eIvDMB0J41AtXun7lqJj-28" style="edgeStyle=orthogonalEdgeStyle;rounded=0;orthogonalLoop=1;jettySize=auto;html=1;entryX=1;entryY=0.5;entryDx=0;entryDy=0;entryPerimeter=0;" edge="1" parent="1" source="eIvDMB0J41AtXun7lqJj-27" target="eIvDMB0J41AtXun7lqJj-5">
          <mxGeometry relative="1" as="geometry" />
        </mxCell>
        <mxCell id="eIvDMB0J41AtXun7lqJj-30" style="edgeStyle=orthogonalEdgeStyle;rounded=0;orthogonalLoop=1;jettySize=auto;html=1;" edge="1" parent="1" source="eIvDMB0J41AtXun7lqJj-29" target="eIvDMB0J41AtXun7lqJj-27">
          <mxGeometry relative="1" as="geometry" />
        </mxCell>
        <mxCell id="eIvDMB0J41AtXun7lqJj-29" value="" style="points=[[0.03,0.03,0],[0.5,0,0],[0.97,0.03,0],[1,0.4,0],[0.97,0.745,0],[0.5,1,0],[0.03,0.745,0],[0,0.4,0]];verticalLabelPosition=bottom;sketch=0;html=1;verticalAlign=top;aspect=fixed;align=center;pointerEvents=1;shape=mxgraph.cisco19.workstation;fillColor=#005073;strokeColor=none;" vertex="1" parent="1">
          <mxGeometry x="760" y="320" width="50" height="40" as="geometry" />
        </mxCell>
        <mxCell id="eIvDMB0J41AtXun7lqJj-31" value="Client" style="text;html=1;strokeColor=none;fillColor=none;align=center;verticalAlign=middle;whiteSpace=wrap;rounded=0;" vertex="1" parent="1">
          <mxGeometry x="755" y="290" width="60" height="30" as="geometry" />
        </mxCell>
        <mxCell id="eIvDMB0J41AtXun7lqJj-32" style="edgeStyle=orthogonalEdgeStyle;rounded=0;orthogonalLoop=1;jettySize=auto;html=1;exitX=0;exitY=0.5;exitDx=0;exitDy=0;exitPerimeter=0;entryX=1;entryY=0.625;entryDx=0;entryDy=0;entryPerimeter=0;" edge="1" parent="1" source="eIvDMB0J41AtXun7lqJj-5" target="eIvDMB0J41AtXun7lqJj-2">
          <mxGeometry relative="1" as="geometry" />
        </mxCell>
        <mxCell id="eIvDMB0J41AtXun7lqJj-34" style="edgeStyle=orthogonalEdgeStyle;rounded=0;orthogonalLoop=1;jettySize=auto;html=1;exitX=1;exitY=0.5;exitDx=0;exitDy=0;" edge="1" parent="1" source="eIvDMB0J41AtXun7lqJj-27">
          <mxGeometry relative="1" as="geometry">
            <mxPoint x="760" y="340" as="targetPoint" />
          </mxGeometry>
        </mxCell>
      </root>
    </mxGraphModel>
  </diagram>
</mxfile>
